# xmcd CD database file
#
# Track frame offsets:
#	150
#	21472
#	37236
#	60046
#	98250
#	116851
#	138204
#	160484
#
# Disc length: 2401 seconds
#
# Revision: 0
# Processed by: cddbd v1.5.1PL0 Copyright (c) Steve Scherf et al.
# Submitted via: CDex 1.51
#
DISCID=63095f08
DTITLE=Hallgeir Pedersen Trio - Wistful
DYEAR=2004
DGENRE=Jazz
TTITLE0=Wistful
TTITLE1=Blues In 3
TTITLE2=Out of Nowhere
TTITLE3=My Ship
TTITLE4=Conviction
TTITLE5=Be All You Can Be
TTITLE6=Impressions
TTITLE7=Theme For Torgeir
EXTD=YEAR: 2004
EXTT0=
EXTT1=
EXTT2=
EXTT3=
EXTT4=
EXTT5=
EXTT6=
EXTT7=
PLAYORDER=
